<?xml version="1.0" standalone="no"?>
<!DOCTYPE svg PUBLIC "-//W3C//DTD SVG 20010904//EN"
 "http://www.w3.org/TR/2001/REC-SVG-20010904/DTD/svg10.dtd">
<svg version="1.0" xmlns="http://www.w3.org/2000/svg"
 width="500.000000pt" height="500.000000pt" viewBox="0 0 500.000000 500.000000"
 preserveAspectRatio="xMidYMid meet">
<metadata>
Created by potrace 1.14, written by Peter Selinger 2001-2017
</metadata>
<g transform="translate(0.000000,500.000000) scale(0.100000,-0.100000)"
fill="#000000" stroke="none">
<path d="M1962 4462 l-44 -17 4 -50 c2 -27 37 -317 78 -642 79 -621 76 -611
120 -583 12 8 9 84 -29 587 -23 318 -45 611 -48 651 -7 81 -8 82 -81 54z"/>
<path d="M1113 4162 c-40 -20 -73 -39 -73 -42 0 -3 22 -34 49 -70 26 -36 146
-200 266 -365 120 -165 274 -378 343 -472 70 -95 132 -173 139 -173 7 0 17 9
23 21 10 18 2 36 -53 127 -51 86 -346 574 -571 945 -22 37 -43 67 -46 66 -3 0
-38 -17 -77 -37z"/>
<path d="M2589 4140 c-53 -9 -129 -67 -156 -120 -30 -59 -31 -135 -3 -150 38
-20 99 37 85 80 -5 15 2 28 25 50 39 36 71 46 100 30 24 -13 60 -67 60 -90 0
-8 -28 -56 -61 -105 -59 -87 -61 -91 -56 -141 11 -104 57 -148 105 -100 l26
25 -17 52 c-9 29 -13 57 -9 64 4 6 29 41 55 78 55 75 67 122 47 183 -16 49
-64 119 -87 129 -38 15 -79 21 -114 15z"/>
<path d="M3224 3931 c-33 -16 -70 -41 -82 -56 -36 -45 -25 -94 20 -87 9 2 19
-2 23 -8 12 -20 45 -10 81 26 33 34 39 36 80 30 24 -3 57 -12 73 -20 48 -25
55 -101 15 -162 -35 -53 -54 -66 -85 -59 -36 8 -144 -12 -189 -35 -44 -22
-106 -110 -115 -162 -6 -29 -3 -40 14 -57 44 -44 97 -22 135 57 l29 60 81 12
c126 18 162 29 205 66 54 47 81 108 88 197 4 55 2 80 -10 102 -59 114 -230
159 -363 96z"/>
<path d="M2745 3525 c-5 -2 -22 -6 -36 -9 -27 -6 -49 -41 -49 -79 0 -65 91
-63 125 3 19 37 19 55 -1 74 -15 16 -20 17 -39 11z"/>
<path d="M500 3459 c-21 -76 -20 -76 155 -157 88 -41 250 -116 360 -167 520
-242 639 -295 648 -286 5 5 7 19 5 32 -2 18 -33 38 -153 101 -489 256 -678
355 -824 432 -90 47 -168 86 -172 86 -5 0 -13 -18 -19 -41z"/>
<path d="M2978 3230 c-44 -23 -57 -43 -50 -76 7 -36 48 -64 94 -64 69 0 123
43 111 90 -5 18 -83 70 -104 70 -8 -1 -31 -10 -51 -20z"/>
<path d="M2280 3015 c-170 -46 -332 -178 -404 -328 -42 -86 -65 -184 -66 -272
l-1 -60 -175 -120 c-469 -322 -564 -407 -647 -582 -29 -61 -32 -77 -32 -158 0
-77 4 -98 27 -145 32 -67 69 -109 137 -154 87 -59 317 -121 364 -98 37 17 56
22 72 16 11 -5 13 -10 5 -19 -16 -19 137 -26 348 -14 102 5 186 8 188 6 8 -7
35 -159 59 -320 26 -185 50 -428 61 -624 4 -68 10 -123 13 -123 4 0 13 6 19
12 10 10 14 8 18 -10 l6 -22 302 0 301 0 83 106 c46 58 86 104 88 101 3 -3
-22 -48 -55 -101 -34 -52 -61 -98 -61 -101 0 -3 200 -5 445 -5 l446 0 -6 33
c-3 17 -19 118 -36 222 -51 323 -132 737 -201 1035 -23 96 -43 186 -45 200 -4
23 4 32 65 72 270 180 497 425 602 651 49 107 63 172 58 282 -4 109 -33 179
-104 256 -55 57 -104 89 -190 121 -53 20 -78 22 -244 22 -210 0 -255 -7 -565
-94 -99 -28 -183 -49 -186 -48 -4 2 -25 26 -47 54 -22 28 -68 72 -102 97 -55
41 -63 45 -77 32 -19 -20 -29 -19 -13 0 18 22 6 31 -81 62 -62 22 -94 27 -194
30 -83 2 -137 -2 -175 -12z m240 -55 c0 -5 -5 -10 -11 -10 -5 0 -7 5 -4 10 3
6 8 10 11 10 2 0 4 -4 4 -10z m-326 -161 c-8 -14 -24 -10 -24 6 0 9 6 12 15 9
8 -4 12 -10 9 -15z m676 -29 c0 -5 -7 -10 -16 -10 -8 0 -12 5 -9 10 3 6 10 10
16 10 5 0 9 -4 9 -10z m360 -117 c0 -2 -5 -11 -11 -21 -23 -37 52 -203 105
-231 20 -11 40 -9 137 14 121 30 349 47 349 27 0 -23 -32 -82 -76 -142 -189
-258 -526 -491 -883 -610 -182 -61 -518 -123 -808 -150 -131 -12 -503 -14
-552 -2 l-34 8 58 49 c32 28 103 82 159 120 63 44 104 80 110 96 13 38 -17
127 -69 205 -25 37 -42 70 -38 74 9 7 131 91 150 103 7 5 24 -19 48 -69 74
-154 238 -285 410 -329 75 -19 221 -19 302 0 211 50 381 208 450 419 22 68 26
99 26 191 0 73 -6 127 -16 160 -9 27 -15 50 -14 51 1 1 34 11 72 22 62 17 125
25 125 15z m-530 -183 c-8 -5 -22 -10 -30 -10 -13 0 -13 1 0 10 8 5 22 10 30
10 13 0 13 -1 0 -10z m190 -209 c24 -46 4 -114 -51 -171 -18 -19 -32 -43 -30
-52 2 -19 -15 -25 -21 -8 -2 6 -27 -2 -58 -19 -129 -69 -303 -87 -408 -41 -83
36 -134 112 -99 147 12 12 50 17 164 23 166 8 201 18 348 93 99 51 139 58 155
28z m-700 -307 c0 -14 -4 -23 -10 -19 -5 3 -10 15 -10 26 0 10 5 19 10 19 6 0
10 -12 10 -26z m575 -409 c-49 -46 -91 -82 -93 -80 -15 15 145 166 173 165 6
-1 -30 -39 -80 -85z m-1435 -68 c0 -18 -2 -19 -10 -7 -13 20 -13 43 0 35 6 -3
10 -16 10 -28z m1840 -57 c0 -5 -4 -10 -10 -10 -5 0 -10 5 -10 10 0 6 5 10 10
10 6 0 10 -4 10 -10z m-336 -91 c-3 -5 -10 -7 -15 -3 -5 3 -7 10 -3 15 3 5 10
7 15 3 5 -3 7 -10 3 -15z m560 -5 c3 -9 6 -30 6 -47 l0 -30 -25 23 c-28 26
-31 40 -13 58 16 16 25 15 32 -4z m-954 -34 c0 -5 -4 -10 -10 -10 -5 0 -10 5
-10 10 0 6 5 10 10 10 6 0 10 -4 10 -10z m-343 -87 c-9 -9 -20 -14 -24 -10 -3
4 2 14 13 21 25 19 33 10 11 -11z m833 -207 c0 -3 -4 -8 -10 -11 -5 -3 -10 -1
-10 4 0 6 5 11 10 11 6 0 10 -2 10 -4z m225 -86 c-3 -5 -11 -10 -16 -10 -6 0
-7 5 -4 10 3 6 11 10 16 10 6 0 7 -4 4 -10z m-757 -33 c4 -35 -14 -59 -42 -55
-27 4 -31 30 -10 63 21 33 48 29 52 -8z m217 -17 c3 -5 1 -10 -4 -10 -6 0 -11
5 -11 10 0 6 2 10 4 10 3 0 8 -4 11 -10z m725 -464 c0 -24 -26 -38 -39 -22
-10 11 -8 17 6 25 25 14 33 14 33 -3z m-477 -66 c3 -11 1 -18 -4 -14 -5 3 -9
12 -9 20 0 20 7 17 13 -6z"/>
</g>
</svg>
